<svg width="14" height="14" viewBox="0 0 14 14" fill="none" xmlns="http://www.w3.org/2000/svg">
<path d="M8.36212 14V13.1765H11.0221V14H8.36212ZM4.24447 14V13.1765H7.15812V14H4.24447ZM0.823529 5.63788H0V2.97788H0.823529V5.63788ZM0.823529 9.75553H0V6.84188H0.823529V9.75553ZM3.04047 14H1.33082C0.951451 14 0.634941 13.8732 0.381294 13.6195C0.127647 13.3659 0.00054902 13.0494 0 12.67V10.9595H0.823529V12.67C0.823529 12.7963 0.876235 12.9124 0.981647 13.0184C1.08706 13.1243 1.20318 13.177 1.33 13.1765H3.04047V14ZM6.50588 8.06153L8.23529 6.33212L9.9647 8.06153L10.5313 7.49412L8.80188 5.76471L10.5313 4.0353L9.9647 3.46788L8.23529 5.1973L6.50588 3.46788L5.93929 4.0353L7.6687 5.76471L5.93929 7.49412L6.50588 8.06153ZM3.80141 11.5294C3.42204 11.5294 3.10553 11.4026 2.85188 11.1489C2.59823 10.8953 2.47114 10.5788 2.47059 10.1994V1.33C2.47059 0.951178 2.59769 0.634668 2.85188 0.380472C3.10608 0.126276 3.42259 -0.000547245 3.80141 1.77485e-06H12.67C13.0488 1.77485e-06 13.3653 0.126825 13.6195 0.380472C13.8737 0.634119 14.0005 0.950629 14 1.33V10.1994C14 10.5782 13.8732 10.8945 13.6195 11.1481C13.3659 11.4018 13.0491 11.5289 12.6692 11.5294H3.80141ZM3.80141 10.7059H12.67C12.7963 10.7059 12.9124 10.6532 13.0184 10.5478C13.1243 10.4424 13.177 10.3262 13.1765 10.1994V1.33C13.1765 1.20373 13.1238 1.08761 13.0184 0.981649C12.9129 0.875688 12.7965 0.822982 12.6692 0.823531H3.80141C3.67459 0.823531 3.5582 0.876237 3.45223 0.981649C3.34627 1.08706 3.29357 1.20318 3.29412 1.33V10.1994C3.29412 10.3257 3.34682 10.4418 3.45223 10.5478C3.55765 10.6537 3.67376 10.7064 3.80059 10.7059" fill="#283B62"/>
</svg>
